<svg xmlns="http://www.w3.org/2000/svg" width="40" height="40" viewBox="0 0 40 40">
  <path id="Caminho_2" data-name="Caminho 2" d="M560.773,386.12a20,20,0,1,1,20-20A20.022,20.022,0,0,1,560.773,386.12Zm0-36.945a16.945,16.945,0,1,0,16.945,16.945A16.964,16.964,0,0,0,560.773,349.175Zm5.948,25.108v-4.445h-.008a11.231,11.231,0,0,1-5.8-1.64l-9.217,9.217V366.371a5.847,5.847,0,0,0-1.084.857l-1.107,1.107-2.215-2.215,1.107-1.107a8.721,8.721,0,0,1,3.3-2.089v-8.1l3.133,3.133v4.448h.009a11.229,11.229,0,0,1,5.8,1.637l9.217-9.217v11.045a5.855,5.855,0,0,0,1.083-.857l1.107-1.108,2.215,2.215-1.107,1.107a8.726,8.726,0,0,1-3.3,2.087v8.1Zm-11.9-4.43,3.5-3.5a8.335,8.335,0,0,0-3.5-.82Zm8.392-3.962a8.337,8.337,0,0,0,3.5.82v-4.324Z" transform="translate(-540.773 -346.12)" fill="#fff"/>
</svg>
